<svg id="Calque_1" data-name="Calque 1" xmlns="http://www.w3.org/2000/svg" xmlns:xlink="http://www.w3.org/1999/xlink" viewBox="0 0 500 500"><defs><style>.cls-1{fill:url(#Dégradé_sans_nom_13);}.cls-2{fill:url(#Dégradé_sans_nom_13-2);}.cls-3{fill:url(#Dégradé_sans_nom_13-3);}.cls-4{fill:url(#Dégradé_sans_nom_13-4);}.cls-5{fill:url(#Dégradé_sans_nom_13-5);}.cls-6{fill:url(#Dégradé_sans_nom_13-6);}.cls-7{fill:url(#Dégradé_sans_nom_13-7);}.cls-8{fill:url(#Dégradé_sans_nom_13-8);}.cls-9{fill:url(#Dégradé_sans_nom_13-9);}.cls-10{fill:url(#Dégradé_sans_nom_13-10);}.cls-11{fill:url(#Dégradé_sans_nom_13-11);}.cls-12{fill:url(#Dégradé_sans_nom_13-12);}.cls-13{fill:url(#Dégradé_sans_nom_13-13);}.cls-14{fill:url(#Dégradé_sans_nom_13-14);}.cls-15{fill:url(#Dégradé_sans_nom_13-15);}.cls-16{fill:url(#Dégradé_sans_nom_13-16);}.cls-17{fill:url(#Dégradé_sans_nom_13-17);}.cls-18{fill:url(#Dégradé_sans_nom_13-18);}.cls-19{fill:url(#Dégradé_sans_nom_13-19);}.cls-20{fill:url(#Dégradé_sans_nom_13-20);}.cls-21{fill:url(#Dégradé_sans_nom_13-21);}.cls-22{fill:url(#Dégradé_sans_nom_13-22);}.cls-23{fill:url(#Dégradé_sans_nom_13-23);}.cls-24{fill:url(#Dégradé_sans_nom_13-24);}.cls-25{fill:url(#Dégradé_sans_nom_13-25);}.cls-26{fill:url(#Dégradé_sans_nom_13-26);}.cls-27{fill:url(#Dégradé_sans_nom_13-27);}.cls-28{fill:url(#Dégradé_sans_nom_13-28);}.cls-29{fill:url(#Dégradé_sans_nom_13-29);}.cls-30{fill:url(#Dégradé_sans_nom_13-30);}.cls-31{fill:url(#Dégradé_sans_nom_13-31);}.cls-32{fill:url(#Dégradé_sans_nom_13-32);}.cls-33{fill:url(#Dégradé_sans_nom_13-33);}.cls-34{fill:url(#Dégradé_sans_nom_13-34);}.cls-35{fill:url(#Dégradé_sans_nom_13-35);}.cls-36{fill:url(#Dégradé_sans_nom_13-36);}.cls-37{fill:url(#Dégradé_sans_nom_13-37);}.cls-38{fill:url(#Dégradé_sans_nom_13-38);}.cls-39{fill:url(#Dégradé_sans_nom_13-39);}.cls-40{fill:url(#Dégradé_sans_nom_13-40);}.cls-41{fill:url(#Dégradé_sans_nom_13-41);}.cls-42{fill:url(#Dégradé_sans_nom_13-42);}.cls-43{fill:url(#Dégradé_sans_nom_13-43);}.cls-44{fill:url(#Dégradé_sans_nom_13-44);}.cls-45{fill:url(#Dégradé_sans_nom_13-45);}.cls-46{fill:url(#Dégradé_sans_nom_13-46);}.cls-47{fill:url(#Dégradé_sans_nom_13-47);}.cls-48{fill:url(#Dégradé_sans_nom_13-48);}.cls-49{fill:url(#Dégradé_sans_nom_13-49);}.cls-50{fill:url(#Dégradé_sans_nom_13-50);}.cls-51{fill:url(#Dégradé_sans_nom_13-51);}.cls-52{fill:url(#Dégradé_sans_nom_13-52);}.cls-53{fill:url(#Dégradé_sans_nom_13-53);}.cls-54{fill:url(#Dégradé_sans_nom_13-54);}.cls-55{fill:url(#Dégradé_sans_nom_13-55);}.cls-56{fill:url(#Dégradé_sans_nom_13-56);}.cls-57{fill:url(#Dégradé_sans_nom_13-57);}.cls-58{fill:url(#Dégradé_sans_nom_13-58);}.cls-59{fill:url(#Dégradé_sans_nom_13-59);}.cls-60{fill:url(#Dégradé_sans_nom_13-60);}.cls-61{fill:url(#Dégradé_sans_nom_13-61);}.cls-62{fill:url(#Dégradé_sans_nom_13-62);}.cls-63{fill:url(#Dégradé_sans_nom_13-63);}.cls-64{fill:url(#Dégradé_sans_nom_13-64);}.cls-65{fill:url(#Dégradé_sans_nom_13-65);}.cls-66{fill:url(#Dégradé_sans_nom_13-66);}.cls-67{fill:url(#Dégradé_sans_nom_13-67);}.cls-68{fill:url(#Dégradé_sans_nom_13-68);}.cls-69{fill:url(#Dégradé_sans_nom_13-69);}.cls-70{fill:url(#Dégradé_sans_nom_13-70);}.cls-71{fill:url(#Dégradé_sans_nom_13-71);}.cls-72{fill:url(#Dégradé_sans_nom_13-72);}.cls-73{fill:url(#Dégradé_sans_nom_13-73);}.cls-74{fill:url(#Dégradé_sans_nom_13-74);}.cls-75{fill:url(#Dégradé_sans_nom_13-75);}.cls-76{fill:url(#Dégradé_sans_nom_13-76);}.cls-77{fill:url(#Dégradé_sans_nom_13-77);}.cls-78{fill:url(#Dégradé_sans_nom_13-78);}.cls-79{fill:url(#Dégradé_sans_nom_13-79);}.cls-80{fill:url(#Dégradé_sans_nom_13-80);}</style><linearGradient id="Dégradé_sans_nom_13" x1="59.36" y1="57.52" x2="387.68" y2="363.68" gradientUnits="userSpaceOnUse"><stop offset="0" stop-color="#f15a24"/><stop offset="0.09" stop-color="#e8562d"/><stop offset="0.23" stop-color="#ce4d44"/><stop offset="0.42" stop-color="#a43d6a"/><stop offset="0.64" stop-color="#6b289e"/><stop offset="0.89" stop-color="#220de0"/><stop offset="0.99" stop-color="blue"/></linearGradient><linearGradient id="Dégradé_sans_nom_13-2" x1="55.78" y1="366.09" x2="134.53" y2="439.53" xlink:href="#Dégradé_sans_nom_13"/><linearGradient id="Dégradé_sans_nom_13-3" x1="270.4" y1="225.32" x2="300.05" y2="252.96" xlink:href="#Dégradé_sans_nom_13"/><linearGradient id="Dégradé_sans_nom_13-4" x1="214.14" y1="287.7" x2="259.96" y2="330.43" xlink:href="#Dégradé_sans_nom_13"/><linearGradient id="Dégradé_sans_nom_13-5" x1="7.3" y1="269.65" x2="41.55" y2="301.59" xlink:href="#Dégradé_sans_nom_13"/><linearGradient id="Dégradé_sans_nom_13-6" x1="15.02" y1="328.68" x2="33.92" y2="346.31" xlink:href="#Dégradé_sans_nom_13"/><linearGradient id="Dégradé_sans_nom_13-7" x1="364.14" y1="163.78" x2="376.79" y2="175.57" xlink:href="#Dégradé_sans_nom_13"/><linearGradient id="Dégradé_sans_nom_13-8" x1="261.44" y1="312.58" x2="274.08" y2="324.36" xlink:href="#Dégradé_sans_nom_13"/><linearGradient id="Dégradé_sans_nom_13-9" x1="261.44" y1="303.6" x2="274.07" y2="315.38" xlink:href="#Dégradé_sans_nom_13"/><linearGradient id="Dégradé_sans_nom_13-10" x1="364.13" y1="145.86" x2="376.76" y2="157.64" xlink:href="#Dégradé_sans_nom_13"/><linearGradient id="Dégradé_sans_nom_13-11" x1="261.46" y1="321.58" x2="274.05" y2="333.32" xlink:href="#Dégradé_sans_nom_13"/><linearGradient id="Dégradé_sans_nom_13-12" x1="364.15" y1="154.83" x2="376.76" y2="166.59" xlink:href="#Dégradé_sans_nom_13"/><linearGradient id="Dégradé_sans_nom_13-13" x1="120.4" y1="449" x2="130.71" y2="458.61" xlink:href="#Dégradé_sans_nom_13"/><linearGradient id="Dégradé_sans_nom_13-14" x1="23.37" y1="84.75" x2="25.32" y2="86.56" xlink:href="#Dégradé_sans_nom_13"/><linearGradient id="Dégradé_sans_nom_13-15" x1="381.33" y1="118.95" x2="383.44" y2="120.92" xlink:href="#Dégradé_sans_nom_13"/><linearGradient id="Dégradé_sans_nom_13-16" x1="23.36" y1="72.89" x2="25.34" y2="74.74" xlink:href="#Dégradé_sans_nom_13"/><linearGradient id="Dégradé_sans_nom_13-17" x1="393.21" y1="118.98" x2="395.25" y2="120.88" xlink:href="#Dégradé_sans_nom_13"/><linearGradient id="Dégradé_sans_nom_13-18" x1="410.99" y1="118.99" x2="413.02" y2="120.88" xlink:href="#Dégradé_sans_nom_13"/><linearGradient id="Dégradé_sans_nom_13-19" x1="422.8" y1="119" x2="424.81" y2="120.87" xlink:href="#Dégradé_sans_nom_13"/><linearGradient id="Dégradé_sans_nom_13-20" x1="434.6" y1="119" x2="436.61" y2="120.87" xlink:href="#Dégradé_sans_nom_13"/><linearGradient id="Dégradé_sans_nom_13-21" x1="122.66" y1="71.45" x2="124.61" y2="73.28" xlink:href="#Dégradé_sans_nom_13"/><linearGradient id="Dégradé_sans_nom_13-22" x1="23.31" y1="66.92" x2="25.41" y2="68.88" xlink:href="#Dégradé_sans_nom_13"/><linearGradient id="Dégradé_sans_nom_13-23" x1="23.33" y1="61.07" x2="25.35" y2="62.95" xlink:href="#Dégradé_sans_nom_13"/><linearGradient id="Dégradé_sans_nom_13-24" x1="122.65" y1="35.97" x2="124.6" y2="37.78" xlink:href="#Dégradé_sans_nom_13"/><linearGradient id="Dégradé_sans_nom_13-25" x1="122.68" y1="6.43" x2="124.59" y2="8.22" xlink:href="#Dégradé_sans_nom_13"/><linearGradient id="Dégradé_sans_nom_13-26" x1="122.66" y1="18.25" x2="124.6" y2="20.05" xlink:href="#Dégradé_sans_nom_13"/><linearGradient id="Dégradé_sans_nom_13-27" x1="122.67" y1="77.36" x2="124.6" y2="79.17" xlink:href="#Dégradé_sans_nom_13"/><linearGradient id="Dégradé_sans_nom_13-28" x1="122.69" y1="59.68" x2="124.59" y2="61.44" xlink:href="#Dégradé_sans_nom_13"/><linearGradient id="Dégradé_sans_nom_13-29" x1="122.68" y1="47.82" x2="124.59" y2="49.6" xlink:href="#Dégradé_sans_nom_13"/><linearGradient id="Dégradé_sans_nom_13-30" x1="122.63" y1="24.12" x2="124.62" y2="25.97" xlink:href="#Dégradé_sans_nom_13"/><linearGradient id="Dégradé_sans_nom_13-31" x1="133.75" y1="447.26" x2="136.04" y2="449.39" xlink:href="#Dégradé_sans_nom_13"/><linearGradient id="Dégradé_sans_nom_13-32" x1="122.66" y1="0.54" x2="124.6" y2="2.35" xlink:href="#Dégradé_sans_nom_13"/><linearGradient id="Dégradé_sans_nom_13-33" x1="446.44" y1="119.01" x2="448.44" y2="120.87" xlink:href="#Dégradé_sans_nom_13"/><linearGradient id="Dégradé_sans_nom_13-34" x1="440.57" y1="118.99" x2="442.6" y2="120.88" xlink:href="#Dégradé_sans_nom_13"/><linearGradient id="Dégradé_sans_nom_13-35" x1="428.73" y1="119" x2="430.74" y2="120.88" xlink:href="#Dégradé_sans_nom_13"/><linearGradient id="Dégradé_sans_nom_13-36" x1="416.82" y1="118.95" x2="418.94" y2="120.92" xlink:href="#Dégradé_sans_nom_13"/><linearGradient id="Dégradé_sans_nom_13-37" x1="405.04" y1="118.99" x2="407.05" y2="120.87" xlink:href="#Dégradé_sans_nom_13"/><linearGradient id="Dégradé_sans_nom_13-38" x1="399.21" y1="119.01" x2="401.21" y2="120.88" xlink:href="#Dégradé_sans_nom_13"/><linearGradient id="Dégradé_sans_nom_13-39" x1="387.34" y1="118.98" x2="389.37" y2="120.87" xlink:href="#Dégradé_sans_nom_13"/><linearGradient id="Dégradé_sans_nom_13-40" x1="375.48" y1="118.99" x2="377.51" y2="120.88" xlink:href="#Dégradé_sans_nom_13"/><linearGradient id="Dégradé_sans_nom_13-41" x1="23.33" y1="90.62" x2="25.34" y2="92.48" xlink:href="#Dégradé_sans_nom_13"/><linearGradient id="Dégradé_sans_nom_13-42" x1="122.64" y1="83.24" x2="124.61" y2="85.07" xlink:href="#Dégradé_sans_nom_13"/><linearGradient id="Dégradé_sans_nom_13-43" x1="23.35" y1="78.81" x2="25.36" y2="80.69" xlink:href="#Dégradé_sans_nom_13"/><linearGradient id="Dégradé_sans_nom_13-44" x1="122.64" y1="65.52" x2="124.61" y2="67.36" xlink:href="#Dégradé_sans_nom_13"/><linearGradient id="Dégradé_sans_nom_13-45" x1="122.63" y1="53.67" x2="124.62" y2="55.52" xlink:href="#Dégradé_sans_nom_13"/><linearGradient id="Dégradé_sans_nom_13-46" x1="122.64" y1="41.87" x2="124.64" y2="43.73" xlink:href="#Dégradé_sans_nom_13"/><linearGradient id="Dégradé_sans_nom_13-47" x1="122.64" y1="12.33" x2="124.62" y2="14.18" xlink:href="#Dégradé_sans_nom_13"/><linearGradient id="Dégradé_sans_nom_13-48" x1="141.01" y1="491.81" x2="142.88" y2="493.55" xlink:href="#Dégradé_sans_nom_13"/><linearGradient id="Dégradé_sans_nom_13-49" x1="176.22" y1="467.04" x2="178.09" y2="468.78" xlink:href="#Dégradé_sans_nom_13"/><linearGradient id="Dégradé_sans_nom_13-50" x1="141.02" y1="462.24" x2="142.88" y2="463.98" xlink:href="#Dégradé_sans_nom_13"/><linearGradient id="Dégradé_sans_nom_13-51" x1="176.22" y1="402.03" x2="178.04" y2="403.73" xlink:href="#Dégradé_sans_nom_13"/><linearGradient id="Dégradé_sans_nom_13-52" x1="176.22" y1="413.88" x2="178.05" y2="415.59" xlink:href="#Dégradé_sans_nom_13"/><linearGradient id="Dégradé_sans_nom_13-53" x1="176.21" y1="431.56" x2="178.07" y2="433.3" xlink:href="#Dégradé_sans_nom_13"/><linearGradient id="Dégradé_sans_nom_13-54" x1="176.21" y1="455.26" x2="178.06" y2="456.99" xlink:href="#Dégradé_sans_nom_13"/><linearGradient id="Dégradé_sans_nom_13-55" x1="137.96" y1="451.42" x2="140.24" y2="453.54" xlink:href="#Dégradé_sans_nom_13"/><linearGradient id="Dégradé_sans_nom_13-56" x1="129.62" y1="443.11" x2="131.87" y2="445.21" xlink:href="#Dégradé_sans_nom_13"/><linearGradient id="Dégradé_sans_nom_13-57" x1="176.23" y1="443.43" x2="178.05" y2="445.13" xlink:href="#Dégradé_sans_nom_13"/><linearGradient id="Dégradé_sans_nom_13-58" x1="176.19" y1="425.67" x2="178.07" y2="427.43" xlink:href="#Dégradé_sans_nom_13"/><linearGradient id="Dégradé_sans_nom_13-59" x1="176.19" y1="419.73" x2="178.08" y2="421.49" xlink:href="#Dégradé_sans_nom_13"/><linearGradient id="Dégradé_sans_nom_13-60" x1="176.2" y1="437.45" x2="178.1" y2="439.22" xlink:href="#Dégradé_sans_nom_13"/><linearGradient id="Dégradé_sans_nom_13-61" x1="176.17" y1="407.9" x2="178.1" y2="409.7" xlink:href="#Dégradé_sans_nom_13"/><linearGradient id="Dégradé_sans_nom_13-62" x1="176.2" y1="449.29" x2="178.08" y2="451.04" xlink:href="#Dégradé_sans_nom_13"/><linearGradient id="Dégradé_sans_nom_13-63" x1="141.02" y1="456.36" x2="142.87" y2="458.08" xlink:href="#Dégradé_sans_nom_13"/><linearGradient id="Dégradé_sans_nom_13-64" x1="176.21" y1="461.12" x2="178.08" y2="462.86" xlink:href="#Dégradé_sans_nom_13"/><linearGradient id="Dégradé_sans_nom_13-65" x1="140.99" y1="468.18" x2="142.87" y2="469.94" xlink:href="#Dégradé_sans_nom_13"/><linearGradient id="Dégradé_sans_nom_13-66" x1="141.02" y1="474.07" x2="142.84" y2="475.77" xlink:href="#Dégradé_sans_nom_13"/><linearGradient id="Dégradé_sans_nom_13-67" x1="141.01" y1="480.02" x2="142.88" y2="481.76" xlink:href="#Dégradé_sans_nom_13"/><linearGradient id="Dégradé_sans_nom_13-68" x1="141.01" y1="485.89" x2="142.87" y2="487.62" xlink:href="#Dégradé_sans_nom_13"/><linearGradient id="Dégradé_sans_nom_13-69" x1="141" y1="497.73" x2="142.87" y2="499.47" xlink:href="#Dégradé_sans_nom_13"/><linearGradient id="Dégradé_sans_nom_13-70" x1="122.71" y1="30.31" x2="124.43" y2="31.92" xlink:href="#Dégradé_sans_nom_13"/><linearGradient id="Dégradé_sans_nom_13-71" x1="148.1" y1="275.66" x2="148.89" y2="276.4" xlink:href="#Dégradé_sans_nom_13"/><linearGradient id="Dégradé_sans_nom_13-72" x1="130.57" y1="369.28" x2="131.39" y2="370.05" xlink:href="#Dégradé_sans_nom_13"/><linearGradient id="Dégradé_sans_nom_13-73" x1="130.68" y1="366.51" x2="131.3" y2="367.08" xlink:href="#Dégradé_sans_nom_13"/><linearGradient id="Dégradé_sans_nom_13-74" x1="130.68" y1="363.87" x2="131.29" y2="364.44" xlink:href="#Dégradé_sans_nom_13"/><linearGradient id="Dégradé_sans_nom_13-75" x1="204.85" y1="220.87" x2="205.03" y2="221.04" xlink:href="#Dégradé_sans_nom_13"/><linearGradient id="Dégradé_sans_nom_13-76" x1="239.74" y1="106.49" x2="242.52" y2="109.08" xlink:href="#Dégradé_sans_nom_13"/><linearGradient id="Dégradé_sans_nom_13-77" x1="237.14" y1="106.91" x2="238.24" y2="107.94" xlink:href="#Dégradé_sans_nom_13"/><linearGradient id="Dégradé_sans_nom_13-78" x1="85.49" y1="158.5" x2="176.62" y2="243.48" xlink:href="#Dégradé_sans_nom_13"/><linearGradient id="Dégradé_sans_nom_13-79" x1="261.34" y1="90.07" x2="325.37" y2="149.78" xlink:href="#Dégradé_sans_nom_13"/><linearGradient id="Dégradé_sans_nom_13-80" x1="238.12" y1="106.8" x2="239.46" y2="108.05" xlink:href="#Dégradé_sans_nom_13"/></defs><title>elect2</title><path class="cls-1" d="M148.06,275.71c-.05-1.06-.35-1.84-1.67-1.62-1,.17-1.18-.46-1.17-1.32,0-2.57,0-5.13,0-7.69,0-1.07-.34-1.41-1.39-1.38q-3.74.09-7.47,0c-1.08,0-1.38.37-1.35,1.4,0,2.56,0,5.13,0,7.69,0,.88-.16,1.47-1.18,1.34-1.74-.23-1.63.89-1.63,2.06q0,13.08,0,26.16,0,37.8,0,75.61c0,1.83-.33,3.28-1.84,4.36-3.51,2.51-4.44,5.84-4.35,10.16.29,14.73.11,29.46.1,44.18,0,1.19-.08,2.35,1.06,3.16.35.24.71,1,.34,1.05-2.25.4-1,2.24-1.51,3.34h-1.24c0-.65-.14-1.31-.14-2,0-18.17,0-36.34,0-54.52a3.74,3.74,0,0,1,1.63-3.35,10.28,10.28,0,0,0,4.45-10.77,18,18,0,0,1,.07-3.28c1.06-.45,1.05-.89,0-1.34v-1.74c.27-.05.58-.11.57-.45s-.31-.4-.58-.45V364.6c.27-.05.59-.11.59-.44s-.3-.41-.58-.46c0-1-.09-2.05-.09-3.07V276.41c0-1.23.31-2.63-1.76-2.3-1,.16-.94-.61-.94-1.28,0-2.5-.05-5,0-7.48,0-1.19-.26-1.72-1.56-1.67-2.41.09-4.83.07-7.25,0-1,0-1.41.32-1.38,1.38.06,2.57,0,5.13,0,7.7,0,.86-.15,1.48-1.18,1.34-1.73-.23-1.62.89-1.62,2.05q0,13,0,25.95c0,.51,0,1,0,1.54s.1,1.09-.67,1.13c-.94.05-.8-.66-.8-1.22,0-4,0-7.91,0-11.87,0-5.28,0-10.56,0-15.83,0-.71.39-1.85-1-1.7-1.61.18-1.74-.66-1.7-1.93.07-2.42,0-4.84,0-7.26,0-.92-.24-1.29-1.23-1.27-2.56.06-5.13.07-7.69,0-1.15,0-1.31.49-1.29,1.45,0,2.49,0,5,0,7.48,0,.7.2,1.64-1,1.48-1.81-.24-1.77.82-1.77,2.12q0,21.87,0,43.76c0,.8-.1,1.59-.16,2.39l-1.32,0c0-5.35-.09-10.7-.09-16q0-15,0-29.91c0-1.27.21-2.59-1.81-2.28-1,.17-.9-.67-.9-1.31,0-2.57,0-5.13,0-7.7,0-1-.29-1.43-1.36-1.4-2.49.06-5,.07-7.48,0-1.09,0-1.35.42-1.33,1.42,0,2.49,0,5,0,7.48,0,1.1-.22,1.7-1.43,1.54s-1.44.4-1.34,1.41c0,.51,0,1,0,1.54v89.74a7.93,7.93,0,0,1,0,1.09c-.09.64.41,1.67-.82,1.64-1.06,0-.63-.95-.7-1.53a11.61,11.61,0,0,1,0-1.32q0-45.09,0-90.17c0-1.35.27-2.75-1.9-2.48-1,.13-.78-.82-.79-1.42,0-2.23,0-4.46,0-7.27-2.29,3.72-5,5.4-8.9,4.69a7.59,7.59,0,0,1-6.12-6.63,7.31,7.31,0,0,1,4.48-7.79c1.81-.64,2-1.61,2-3.22-.09-4.11-.1-8.22,0-12.32,0-1.48-.44-1.88-1.85-1.82-2.27.11-4.55,0-6.82,0-.89,0-1.68,0-1.52-1.22s-.5-1.57-1.67-1.55c-3.3.07-6.6.06-9.9,0-1.1,0-1.65.25-1.52,1.45a20.18,20.18,0,0,1,0,2.2V373.58q0,14.3,0,28.59c0,1.17,0,2.13,1.29,2.94a3.11,3.11,0,0,1,.33,4.95,3.42,3.42,0,0,1-4.75,0,3.15,3.15,0,0,1,.35-5c1.34-.82,1.22-1.84,1.22-3q0-82.69-.06-165.4c0-2.24.53-2.89,2.76-2.76,3.44.19,6.89,0,10.34.06,1,0,1.78-.06,1.58-1.37s.61-1.38,1.61-1.36c2.35.05,4.69,0,7,0,1,0,1.56-.16,1.55-1.41q-.07-12.21,0-24.41c0-1.16-.38-1.53-1.52-1.49-2.41.07-4.84,0-7.25,0-1,0-1.57-.22-1.42-1.32s-.48-1.43-1.55-1.42q-10.66,0-21.33,0a2.67,2.67,0,0,0-2.32,1,10.24,10.24,0,0,1-1.86,1.86c-4.94,3.43-6.09,8.09-5.85,14,.46,11.26.07,22.57,0,33.85H23.79c0-12.39.09-24.78-.23-37.16-.1-4.08,1.31-6.74,4-9.72,3.76-4.21,7.76-6,13.35-5.43,5.09.47,10.26.11,15.39.08.65,0,1.75.32,1.62-.85C57.63,196.7,59,197,60.35,197c2.12,0,4.25,0,6.38,0,1,0,1.43-.26,1.4-1.35-.07-2.49-.07-5,0-7.48,0-1.05-.29-1.41-1.36-1.38-2.49.07-5,0-7.48,0-.87,0-1.48-.12-1.33-1.16.19-1.32-.48-1.55-1.65-1.54q-20.56,0-41.14,0a2,2,0,0,0-1.94,1,3.26,3.26,0,0,1-5.1.75,3.36,3.36,0,1,1,5.13-4.19,2,2,0,0,0,2,1q20.57,0,41.14,0c1,0,1.75-.16,1.6-1.41s.51-1.44,1.57-1.41c2.27.05,4.55-.08,6.82.05,1.49.07,1.87-.48,1.8-1.88-.11-2.19-.09-4.4,0-6.6,0-1.31-.3-1.84-1.71-1.76-2.27.11-4.55,0-6.82.05-1.14,0-1.85-.16-1.68-1.51s-.87-1.21-1.72-1.21c-6.74,0-13.49,0-20.24,0a4.26,4.26,0,0,1-3.43-1.46c-2.53-2.65-5.14-5.22-7.77-7.77a3.41,3.41,0,0,1-1.11-2.69q.06-28.81,0-57.63c0-.44,0-.88,0-1.32s.13-.85.73-.86.76.31.77.81v1.54q0,28.16,0,56.32a4.21,4.21,0,0,0,1.5,3.64,14.69,14.69,0,0,1,2.79,2.78c3.09,4.4,7.21,5.71,12.48,5.19,4.73-.46,9.53-.12,14.3-.08,1.13,0,1.89-.16,1.72-1.51-.14-1.11.42-1.35,1.42-1.33,2.42.06,4.84,0,7.26,0,1.14,0,1.51-.34,1.5-1.49-.06-4.33-.09-8.65,0-13,0-1.33-.77-1.52-1.65-1.88a7.67,7.67,0,0,1,2-14.85c3.56-.27,6.08,1.53,8.13,4.5,0-2.52,0-5,0-7.56,0-.67-.3-1.69.92-1.52,1.8.25,1.8-.75,1.79-2.07,0-11.51,0-23,0-34.54a5.07,5.07,0,0,1,1.64-4C85.5,82,89.89,77.44,94.38,73a3.46,3.46,0,0,0,1.13-2.69q-.06-20.36,0-40.7a2.33,2.33,0,0,0-1.14-2.33,3.22,3.22,0,0,1-.58-5.11,3.47,3.47,0,0,1,4.92.09,3.27,3.27,0,0,1-.77,5.1c-1.22.72-1,1.63-1,2.59q0,20.36,0,40.7a4.06,4.06,0,0,1-1.32,3.26c-4.51,4.41-8.91,8.92-13.4,13.34a3.86,3.86,0,0,0-1.35,3q.06,17.39,0,34.76c0,1.26.09,2.17,1.73,1.91,1.15-.18,1,.71,1,1.44,0,2.64.06,5.28,0,7.92,0,1.35.25,2,1.77,1.92,2.34-.11,4.69-.07,7,0,1.06,0,1.39-.37,1.36-1.41,0-2.79,0-5.57,0-8.36,0-.84-.08-1.72,1.18-1.51,1.6.27,1.55-.73,1.55-1.84,0-6.67,0-13.34,0-20,0-1.43.37-1.9,1.82-1.87,3.52.09,7,0,10.56,0a3.85,3.85,0,0,0,3.08-1.27c3.31-3.41,6.7-6.76,10.1-10.1.41-.4.79-1.56,1.67-.61s-.3,1.27-.71,1.68c-3.44,3.51-7,6.94-10.38,10.47a3.82,3.82,0,0,1-3.1,1.21c-3.3-.07-6.6,0-9.9,0-1.11,0-1.56.29-1.55,1.48,0,6.52,0,13,0,19.58,0,.88.22,1.44,1.23,1.28,1.33-.21,1.58.46,1.55,1.64-.07,2.64.05,5.28,0,7.92,0,1.32.29,1.75,1.68,1.74q20.56-.06,41.14,0c1.42,0,1.71-.52,1.67-1.79-.08-2.71,0-5.43,0-8.14,0-.81,0-1.52,1.13-1.34,1.8.3,1.59-.92,1.59-2,0-12.84,0-25.67-.06-38.5a4.6,4.6,0,0,1,1.52-3.63q12.19-12.06,24.25-24.26a3.94,3.94,0,0,1,3.08-1.26c15.33,0,30.66,0,46,0,1.22,0,2.14-.08,2.93-1.32a3.24,3.24,0,0,1,5-.42,3.42,3.42,0,0,1-.09,4.9,3.2,3.2,0,0,1-5-.55,2.36,2.36,0,0,0-2.5-1.2q-22.89,0-45.77,0a3.73,3.73,0,0,0-2.89,1.17q-11.85,12-23.79,23.8A4.14,4.14,0,0,0,149.31,87q.06,19,0,38.06c0,1.23,0,2.21,1.67,1.91,1-.18,1.18.47,1.17,1.33,0,2.71.07,5.43,0,8.13-.06,1.49.47,1.89,1.87,1.83,2.27-.1,4.55-.09,6.82,0,1.28,0,1.62-.44,1.59-1.66-.08-2.79,0-5.57,0-8.36,0-.89.17-1.44,1.2-1.26,1.61.28,1.52-.77,1.52-1.85,0-9.39,0-18.77-.06-28.16,0-1.85.49-2.28,2.3-2.27q35.87.1,71.72,0c1,0,2.19.49,2.52-1.24.16-.85,1.28-.4,2-.41,4.87-.07,4.87,0,4.87-4.91,0-1,0-2,0-3.08,0-1.79.24-3.36-2.08-4.34s-2.93-3.61-2.34-6.09a5.67,5.67,0,0,1,4.64-4.14,5.27,5.27,0,0,1,5.84,2.94,2.56,2.56,0,0,0,2.86,1.62c2.64-.09,5.28-.08,7.92,0,1.21,0,1.74-.27,1.64-1.57a37.36,37.36,0,0,1,0-4c0-.86-.41-2,1.19-2,.74,0,.49-.78.5-1.23,0-5.8,0-11.59,0-17.38a2.52,2.52,0,0,0-1.26-2.17c-4.24-3-5.55-7-5-12.1.44-4.35.07-8.79.1-13.19a2.54,2.54,0,0,0-1.19-2.53,3.18,3.18,0,0,1-.56-5,3.46,3.46,0,0,1,4.92-.07,3.31,3.31,0,0,1-.47,5,2.78,2.78,0,0,0-1.28,2.73c0,5.87.07,11.73,0,17.6a3.49,3.49,0,0,0,1.41,3.23c4.14,2.87,5.44,6.76,4.89,11.71A86,86,0,0,0,270,64.92c0,1.08-.62,2.48,1.36,2.87.69.14.29,1.45.3,2.22,0,5.08,0,5,5.14,5.09,1.83,0,2.26-.61,2.12-2.24a33.34,33.34,0,0,1,0-3.74c0-.66-.26-1.51.95-1.56.9,0,.64-.86.64-1.37,0-8.58,0-17.16,0-25.74a1.89,1.89,0,0,0-1-1.72,3.36,3.36,0,1,1,4.16-5.21c1.56,1.61,1.34,3.84-.72,5.24a2,2,0,0,0-.93,2q0,12.54,0,25.08c0,.82-.28,1.75,1.14,1.88.89.09.53,1.06.57,1.66.13,1.82-.75,4.22.35,5.3s3.62.35,5.5.38c3.89.06,7.78,0,11.66,0,1.22,0,1.72-.29,1.63-1.57s0-2.79,0-4.18c0-.85-.24-1.8,1.18-1.81.75,0,.52-.77.52-1.22,0-4,0-8.07.05-12.1a2.65,2.65,0,0,0-1.12-2c-3.36-3.38-6.69-6.79-10.13-10.08a4.31,4.31,0,0,1-1.41-3.46c.07-7.26,0-14.52,0-21.78,0-1.2-.05-2.12-1.33-2.91a3.18,3.18,0,0,1-.3-5,3.48,3.48,0,0,1,4.93.19,3.26,3.26,0,0,1-.51,4.84,2.47,2.47,0,0,0-1.27,2.48c0,7.33.05,14.66,0,22a3.63,3.63,0,0,0,1.25,2.86c3.41,3.33,6.73,6.73,10.13,10.07A3.37,3.37,0,0,1,306,54.1c-.07,3.89,0,7.78,0,11.66,0,.8-.36,1.86,1.13,1.86.77,0,.59.69.6,1.16,0,1.39.1,2.8,0,4.18-.13,1.54.23,2.17,2,2.14C314.83,75,314.2,75,315,70c.93-5.86.57-11.67.77-17.49a2.63,2.63,0,0,1,1.05-1.83c2.07-2.07,4.11-4.18,6.23-6.21a3.4,3.4,0,0,0,1.15-2.68q-.07-12.32,0-24.63a2.51,2.51,0,0,0-1.3-2.46,3.35,3.35,0,1,1,4.43-5,3.19,3.19,0,0,1-.46,5c-1.22.74-1.23,1.6-1.22,2.71,0,8.21,0,16.43,0,24.64a4.09,4.09,0,0,1-1.3,3.28c-2.42,2.33-5.58,4.44-6.79,7.33s-.3,6.49-.31,9.79c0,1.1,0,2.2,0,3.3s-.11,2.09,1.52,1.87c1.06-.15.87.72.88,1.35,0,1.61.05,3.22,0,4.84,0,.93.29,1.38,1.26,1.26h.22c5.71.28,5.7.28,5.77-5.51,0-.84-.46-1.92,1.14-2.08.84-.08.48-1.09.48-1.69,0-4,.18-8.08,0-12.1-.14-2.41.72-2.8,2.91-2.8,29,.08,58.08.05,87.12.06,1.26,0,2.24,0,3.1-1.35a3.12,3.12,0,0,1,5-.22,3.46,3.46,0,0,1-.07,4.77,3.4,3.4,0,0,1-5-.45,2.68,2.68,0,0,0-2.7-1.28q-43.46,0-86.9,0c-1.59,0-2,.47-1.91,2,.1,3.81,0,7.63,0,11.44,0,.79-.37,1.84,1.12,1.85.71,0,.57.73.58,1.21,0,1.32,0,2.63,0,4,.89,0,1.08-.74,1.54-1.11a5.58,5.58,0,0,1,6-.92A5.46,5.46,0,0,1,342.76,76a5,5,0,0,1-3.09,5.14c-1.55.62-1.61,1.51-1.61,2.8,0,6.31.1,12.61,0,18.92,0,1.91.56,2.44,2.33,2.21a17.06,17.06,0,0,1,2.86,0c.86,0,1.91-.42,2,1.18.06.86,1.08.49,1.68.49,5.79,0,11.58,0,17.38,0,14.74,0,29.48,0,44.22.05a5.47,5.47,0,0,0,4.38-1.88c3.08-3.23,6.34-6.3,9.42-9.54a5.28,5.28,0,0,1,4.19-1.77c19.22.07,38.43,0,57.64.06,1.2,0,2.12,0,2.91-1.31a3.19,3.19,0,0,1,4.83-.42,3.42,3.42,0,0,1,.12,4.91,3.23,3.23,0,0,1-5-.35c-.8-1.29-1.74-1.28-2.92-1.28q-28.59,0-57.2,0a4.84,4.84,0,0,0-3.84,1.59c-3.3,3.43-6.75,6.73-10.06,10.15a4.08,4.08,0,0,1-3.27,1.32q-31.12-.06-62.26,0c-.91,0-2.38-.7-2.37,1.27,0,.46-.5.42-.85.44s-.74,0-1.1,0c-5.56,0-5.82.38-5.1,6,.12.93.53,1.06,1.27,1,1.24,0,2.49,0,3.74,0,.9,0,2.08-.51,2.19,1.25.05.76,1.13.42,1.73.42,7.19,0,14.38,0,21.57,0,.44,0,.88,0,1.32,0s.86.13.89.7-.44.83-1,.82h-1.32c-7.11,0-14.22,0-21.34,0-.85,0-2-.41-2,1.21,0,.45-.49.45-.86.45h-.88c-5.72.09-5.69.08-5.32,5.83.07,1.06.42,1.41,1.43,1.36a29.52,29.52,0,0,1,3.52,0c.86.07,2.07-.62,2.28,1.16.09.72,1.29.4,2,.4q12,0,24,0c15.84,0,31.68,0,47.52,0a4.34,4.34,0,0,1,3.44,1.45c4.36,4.46,8.82,8.81,13.17,13.27a4.29,4.29,0,0,0,3.83,1.56,31.09,31.09,0,0,1,3.74,0c1.44,0,2.66.11,3.66-1.52s3.48-1.44,4.81,0a3.33,3.33,0,0,1-.12,4.74c-1.37,1.3-3.83,1.33-4.85-.28a2.67,2.67,0,0,0-3.07-1.34c-5,.83-8.73-1-12-4.89-3-3.6-6.6-6.66-9.85-10a4.13,4.13,0,0,0-3.27-1.34q-35.54.06-71.07,0c-.91,0-2.09-.46-2.21,1.26-.05.76-1,.38-1.5.43-1.73.16-4-.75-5.07.36s-.33,3.49-.35,5.3c0,5.57,0,11.14,0,16.72a2.1,2.1,0,0,0,1.35,2.33,5.5,5.5,0,0,1,3.36,6,5.61,5.61,0,0,1-4.61,4.66,5.39,5.39,0,0,1-6.27-3.27,1.88,1.88,0,0,0-2.12-1.33c-2.78.06-5.57.09-8.36,0-1.3,0-1.9.3-1.74,1.7a22.61,22.61,0,0,1,0,3.08c0,.82.3,1.73-1.11,1.92-1,.13-.55,1.21-.55,1.85,0,7,0,13.93,0,20.9q0,41.91,0,83.81a4.17,4.17,0,0,1-1.36,3.27c-5.48,5.4-10.88,10.89-16.37,16.28a4.36,4.36,0,0,0-1.4,3.45q.06,58.51,0,117V457c0,.51,0,1,0,1.54s-.09.71-.58.74-.83-.18-.84-.73,0-1.32,0-2q0-78,0-156a5.11,5.11,0,0,1,1.71-4c5.44-5.34,10.78-10.77,16.21-16.13a3.7,3.7,0,0,0,1.2-2.87q0-52.14,0-104.27c0-.86.37-1.84-1.15-2.1-1-.16-.51-1.37-.52-2.1-.06-4.35,0-4.22-4.33-4.4-2.26-.09-3,.52-2.91,2.84.05,1.31,1.38,3.54-1.46,4-.15,0-.17,1.08-.18,1.66,0,5-.06,10-.09,14.94l-1.24.43q0-7.8-.08-15.59c0-.72.35-1.6-1-1.74s-.68-1.27-.69-2c-.09-4.53-.07-4.53-4.56-4.53-6.08,0-12.16,0-18.24,0-1.45,0-2,.41-1.8,1.85a20.84,20.84,0,0,1,0,2.85c0,.9.31,1.89-1.25,2-1.08.07-.58,1.18-.58,1.81,0,7.83,0,15.67,0,23.51,0,6.59-.05,13.19,0,19.78,0,1.52-.37,2-1.93,2-22.35-.06-44.69,0-67-.11-1.89,0-2.72.41-2.42,2.34l-.42.38c-3.15,0-6.31.1-9.46,0-1.21,0-1.66.29-1.61,1.57.1,2.34.09,4.69,0,7,0,1.22.31,1.65,1.58,1.61,2.78-.09,5.57,0,8.35-.05,1.19,0,1.64.23,1.67,1.55.12,5.46.17,5.45-5.22,5.47-2,0-4.77-.67-5.93.36-1.34,1.21-.36,4-.41,6.1-.07,3.65,0,3.65,3.67,3.65,2.2,0,4.4,0,6.6,0,.94,0,1.38.28,1.26,1.25a.81.81,0,0,0,0,.22c.25,5.58.25,5.58-5.31,5.57h-4.23c2.8,1.77,4.47,3.69,4.76,6.51a7.58,7.58,0,0,1-1.42,5.39c-2.75,3.81-6.4,4-12.59.56,0,1.72,0,3.29,0,4.87,0,.83-.06,1.5-1.14,1.35-1.76-.26-1.6.92-1.6,2.06q0,15.94,0,31.89c0,.59,0,1.18,0,1.76s-.26.77-.8.75a.6.6,0,0,1-.65-.68c0-.51,0-1,0-1.54q0-16,0-32.11c0-1.24.14-2.42-1.72-2.15-1.19.17-1-.73-1-1.45,0-2.49-.06-5,0-7.47,0-1.16-.37-1.53-1.5-1.5-2.42.06-4.85.07-7.26,0-1.18,0-1.51.4-1.48,1.52.07,2.42,0,4.84,0,7.26,0,1.15-.16,1.85-1.52,1.67-1.14-.15-1.28.57-1.27,1.5,0,5.5,0,11,0,16.5a3.17,3.17,0,0,0,1.18,2.45c2.57,2.52,5.05,5.12,7.66,7.58a4,4,0,0,1,1.32,3.28c-.05,9.75,0,19.5,0,29.25a4.79,4.79,0,0,0,4.84,5,3.38,3.38,0,1,1-.47,6.73,3.17,3.17,0,0,1-2.8-4,2.47,2.47,0,0,0-1.1-3.09,5.29,5.29,0,0,1-2-4.75c.12-9.46,0-18.92.1-28.37a4.64,4.64,0,0,0-1.64-3.8c-1.74-1.57-3.32-3.32-5-4.94-.48-.45-.83-1.45-1.67-1.07-.67.31-.32,1.19-.32,1.81,0,3.89,0,7.77,0,11.66q0,27.06,0,54.11a3,3,0,0,0,1.34,2.92,3.22,3.22,0,0,1,.36,5,3.35,3.35,0,0,1-4.9-.12,3.24,3.24,0,0,1,.59-5,2.5,2.5,0,0,0,1.17-2.51q0-44.1,0-88.21c0-1.33,0-2.34-1.79-2.06-1.07.17-.92-.65-.92-1.29,0-2.5-.06-5,0-7.48,0-1.19-.23-1.71-1.54-1.66-2.42.09-4.84.08-7.26,0-1.17,0-1.5.38-1.47,1.51.06,2.49,0,5,0,7.47,0,1-.11,1.61-1.28,1.44-1.33-.2-1.52.5-1.52,1.67q0,46,0,92a3.71,3.71,0,0,0,1.35,2.82q12.75,12.75,25.48,25.52c.11.1.26.18.32.3.25.55,1.57.8.59,1.69-.79.73-1.12-.25-1.52-.62-1.95-1.88-3.87-3.8-5.79-5.72q-9.27-9.24-18.52-18.49c-.44-.43-.8-1.3-1.51-1s-.34,1.15-.35,1.76c0,8.94,0,17.89,0,26.83a2.53,2.53,0,0,0,1.29,2.46,3.26,3.26,0,0,1,.51,5,3.43,3.43,0,0,1-4.91,0,3.14,3.14,0,0,1,.49-4.95c1.38-.79,1.24-1.79,1.24-2.92q0-61.15,0-122.31c0-.51.06-1,.09-1.52.23-.43,1.25.1,1-.77S148.42,275.6,148.06,275.71Zm93.13-169c0-1.38.65-1.92,2.05-1.73.94.12,1.92-.08,2.85,0,1.79.25,2.37-.33,2.32-2.22-.13-4.86,0-4.85-4.9-4.89-.69,0-1.85.37-2-.41-.26-1.79-1.47-1.27-2.44-1.29-2,0-4,0-5.94,0q-32.21,0-64.42,0c-1.32,0-2.3-.12-2.27,1.84.11,9.09.06,18.17,0,27.26,0,1.15.17,1.87,1.53,1.66,1.19-.2,1.27.54,1.26,1.45,0,2.79,0,5.57,0,8.36,0,1,.24,1.46,1.34,1.44,2.49-.05,5-.05,7.47,0,1.26,0,1.43-.58,1.41-1.62,0-2.78,0-5.57,0-8.35,0-.84.08-1.49,1.15-1.32,1.54.26,1.6-.66,1.59-1.82,0-5.42,0-10.85-.05-16.27,0-1.64.29-2.27,2.11-2.21,4.46.15,8.93,0,13.41,0l39.57.08c0,.42,0,.84,0,1.26-.8,0-1.6.12-2.41.12-16.35,0-32.7,0-49.06,0-1.74,0-2.22.45-2.17,2.18.12,4.91.07,9.82,0,14.74,0,1.28.11,2.16,1.72,1.91,1.19-.18,1,.7,1,1.43.1,1.82-.27,3.69.28,5.61,4.41-3.26,8-3.42,11.13-.62a7.62,7.62,0,0,1,2.57,6.06c0,2.47-1.39,4.31-3.26,6.26,2.48,0,4.52,0,6.57,0,1.1,0,1.7.23,1.5,1.45s.37,1.37,1.38,1.35c2.19-.05,4.4-.11,6.59,0,1.66.1,2.28-.31,2.23-2.13-.14-4.61,0-9.23-.07-13.85,0-1.41.35-1.89,1.83-1.88,6.75.07,13.5.08,20.24-.06,1.48,0,3.57,1.14,4.38-1.4,0-.14.67-.13,1-.14a31.78,31.78,0,0,1,3.52,0c1.59.17,2.17-.3,2.12-2-.13-4.1,0-8.21,0-12.31,0-4.82,0-4.82-4.72-4.84h-1.32c-1,0-1-.63-.84-1.34.56-.19,1.48.61,1.67-.38.14-.68-.75-.74-1.26-1A6.33,6.33,0,0,1,241.19,106.73ZM191.07,201q0-26.16,0-52.33c0-1.3-.13-2.13-1.59-2.61a6.12,6.12,0,0,1-3.86-4,2,2,0,0,0-2.22-1.47q-52.56,0-105.12,0c-1.11,0-1.7.25-2.07,1.36a6.7,6.7,0,0,1-4.14,4.28,2,2,0,0,0-1.53,2.23q.06,52.34,0,104.67a2,2,0,0,0,1.48,2.24,6.18,6.18,0,0,1,4.17,3.93c.51,1.64,1.42,1.85,2.88,1.84q26.49-.06,53,0,25.5,0,51,0c1.37,0,2.25-.15,2.76-1.69a5.62,5.62,0,0,1,3.63-3.6c1.46-.47,1.59-1.27,1.59-2.56Q191,227.18,191.07,201Zm144.41-80.82c0-11.51,0-23,0-34.53,0-2.2.32-4.4-2.35-5.4a1.7,1.7,0,0,1-.83-1c-.5-1.64-1.72-1.62-3.12-1.62q-35.52,0-71.05,0c-1.75,0-3.51-.26-4.22,2A2.37,2.37,0,0,1,252.5,81c-1.68.51-1.63,1.7-1.63,3.08q0,35.52,0,71c0,1.77,0,3.29,2.09,3.93a2.43,2.43,0,0,1,1.33,1.39c.6,1.92,2,1.87,3.61,1.87q35.21,0,70.39,0c1.87,0,3.63.17,4.43-2.08A2.24,2.24,0,0,1,334,159c1.41-.49,1.52-1.47,1.52-2.75Q335.45,138.23,335.48,120.19ZM234.19,200.27h27.05c1,0,2,.28,2-1.43-.07-8.72,0-17.45-.05-26.17,0-.51.3-1.31-.65-1.32-1.3,0-1.07-.91-1.08-1.69,0-1.25,0-2.5,0-3.74,0-.42.13-1.07-.41-1.1-1.68-.1-3.37-.06-5.05-.08-1.27,0-1.1,1.21-1.56,1.86A5.73,5.73,0,0,1,244,164.94c-.53-2.16.17-4.88,2.11-5.8,2.16-1,2.46-2.51,2.25-4.52-.11-1.09,0-2.2,0-3.3-.09-1.73.76-3.94-.36-5.07s-3.2-.21-4.86-.34c-.59,0-1.55.37-1.65-.57-.14-1.36-1-1.15-1.87-1.15-3.74,0-7.48.09-11.22,0-1.7-.06-2.19.38-2.18,2.14.09,12,0,23.9.09,35.85,0,1.63-.37,2.1-2.05,2.07-5.79-.12-11.58-.05-17.37,0-.82,0-1.93-.3-1.71,1.2s-.56,1.51-1.67,1.49c-2.72-.06-5.43,0-8.14-.05-1.26,0-1.86.19-1.78,1.65.13,2.34.11,4.69,0,7-.06,1.32.47,1.58,1.64,1.55,2.79-.07,5.58,0,8.36,0,1,0,1.78.12,1.56,1.4-.28,1.64.57,1.9,2,1.89C216.15,200.25,225.17,200.27,234.19,200.27ZM240.12,217v0c11,0,22,0,33,0,1.5,0,2-.33,2-1.91-.07-14,0-28,0-42,0-.51,0-1.44-.12-1.47-2.46-.5-1.36-2.43-1.42-3.72-.15-3.1-.05-3.1-3.19-3.1-4,0-4,0-4,4,0,.84.45,2.28-.38,2.4-1.83.27-1.3,1.45-1.31,2.41,0,8.65-.07,17.3,0,25.94,0,1.82-.44,2.3-2.28,2.29-18.33-.08-36.66,0-55,0-1.09,0-2.43-.44-2.25,1.58.08,1-1,.68-1.52.69-2.79,0-5.57.07-8.36,0-1.2,0-1.7.26-1.64,1.57.09,2.34.09,4.69,0,7-.06,1.27.37,1.63,1.61,1.59,2.78-.09,5.57,0,8.35,0,.82,0,1.76-.12,1.57,1.16-.25,1.72.82,1.64,2,1.64Q223.63,216.93,240.12,217Zm-15.39-54.26c0-6.09,0-12.17,0-18.26,0-1.36.36-1.76,1.73-1.72,3.66.09,7.33.14,11,0,1.47-.07,3.62,1.17,4.29-1.5,0-.12.67-.12,1-.13a31.08,31.08,0,0,1,3.74,0c1.58.16,1.93-.45,1.92-2,0-5.11,0-5.1-5.05-5.2-.66,0-1.72.43-1.87-.56-.21-1.36-1.07-1.13-1.91-1.13-7,0-14.08,0-21.12,0-1.39,0-1.71.39-1.69,1.72.09,4.54,0,9.09.1,13.64,0,1.73-.3,2.5-2.25,2.37-2.62-.18-5.27-.07-7.91,0-.57,0-1.62-.33-1.49.7.29,2.26-1.12,2-2.53,2-1.69,0-3.37,0-5.06,0-4,0-4,0-4,4,0,2-.65,4.59.34,5.72,1.16,1.33,3.85.4,5.88.42,5.55.06,5.51,0,5.35,5.59,0,1.17-.36,1.5-1.5,1.47-2.86-.07-5.72,0-8.58-.05-1.14,0-1.55.32-1.52,1.48.07,2.42.08,4.84,0,7.26,0,1.15.33,1.52,1.48,1.49,2.86-.07,5.72,0,8.58,0,.89,0,1.68,0,1.5,1.22-.24,1.57.7,1.58,1.85,1.58,5.21,0,10.42-.1,15.62,0,1.85.05,2.16-.65,2.14-2.28C224.68,174.57,224.73,168.63,224.73,162.69ZM187.79,139.1a5,5,0,0,0,4.81,5,4.95,4.95,0,1,0,0-9.89A5,5,0,0,0,187.79,139.1Zm-118.7,5a4.89,4.89,0,1,0,.09-9.78,4.89,4.89,0,0,0-.09,9.78Zm.29,113.54a5,5,0,0,0-5,4.75,5,5,0,0,0,5,5,4.88,4.88,0,0,0,0-9.75Zm123.29,10.06a4.89,4.89,0,1,0,.17-9.77,4.89,4.89,0,0,0-.17,9.77ZM249.56,73a3.24,3.24,0,0,0-3.29,3.15,3.43,3.43,0,0,0,3.22,3.28,3.32,3.32,0,0,0,3.14-3.1A3.16,3.16,0,0,0,249.56,73Zm90.68,90.87a3.15,3.15,0,0,0-6.29-.23,3.15,3.15,0,1,0,6.29.23Zm-3.16-84.51a3.24,3.24,0,0,0,3.1-3.33,3.1,3.1,0,0,0-3.3-3.08,3.26,3.26,0,0,0-3.06,3.16A3.42,3.42,0,0,0,337.08,79.34Zm-84.32,84.18a3.14,3.14,0,0,0-3.28-3.1,3,3,0,0,0-3,3.1,3.15,3.15,0,1,0,6.3,0Z"/><path class="cls-2" d="M96.57,322.34l1.32,0c.55,2.12,2.39,3.34,3.8,4.65,3.58,3.34,6.87,7,10.48,10.27a4,4,0,0,1,1.23,3.32q0,42.34,0,84.69c0,4.77,0,9.53,0,14.3a2.76,2.76,0,0,0,1.29,2.72,3.32,3.32,0,0,1,.45,5,3.4,3.4,0,0,1-4.91,0,3.25,3.25,0,0,1,.4-5,2.43,2.43,0,0,0,1.31-2.22q-.06-36.4,0-72.81c0-.26,0-.53-.1-1.41-2.23,2.29-4.07,4.22-6,6.12-3.62,3.64-7.23,7.28-10.9,10.86a3.4,3.4,0,0,0-1.14,2.68q0,44.33,0,88.64a2,2,0,0,0,1,2.13,3.25,3.25,0,0,1,.66,5.11,3.37,3.37,0,1,1-4.39-5.06c1.31-.77,1.09-1.74,1.09-2.78q0-43.77,0-87.54a5.77,5.77,0,0,1,1.94-4.57c5.61-5.47,11.11-11.07,16.69-16.58a3.4,3.4,0,0,0,1.12-2.68q-.08-10.67,0-21.34a3.63,3.63,0,0,0-1.22-2.85c-4.37-4.31-8.68-8.68-13-13C96.89,324.25,96.18,323.53,96.57,322.34Z"/><path class="cls-3" d="M304.64,188.59l1.24-.43q0,18.57.1,37.14c0,6.67-.07,13.34,0,20,0,1.8-.55,2.14-2.21,2.14-15.82-.06-31.65,0-47.48-.07a4.36,4.36,0,0,0-3.44,1.42c-5,5.05-10.05,10-15.08,15l-1.43,0c-.19-.62.26-.94.62-1.3,5.12-5.12,10.27-10.22,15.35-15.38a4.39,4.39,0,0,1,3.45-1.41c15.38.05,30.75,0,46.13.09,2.34,0,2.67-.7,2.66-2.78-.08-17.65,0-35.29,0-52.94C304.57,189.61,304.62,189.1,304.64,188.59Z"/><path class="cls-4" d="M236.39,263.84l1.43,0c0,.87-.11,1.75-.11,2.63v85.11a7.26,7.26,0,0,1,0,1.32c-.1.63.45,1.73-.68,1.74s-.66-1.11-.66-1.72q0-44.08,0-88.19C236.33,264.42,236.37,264.13,236.39,263.84Z"/><path class="cls-5" d="M23.79,252h1.28c0,5.57.08,11.14.08,16.72q0,24.07,0,48.17c0,.81-.06,1.61-.09,2.41l-1.27,0c0-.8-.1-1.6-.1-2.4q0-31.26,0-62.51C23.69,253.57,23.76,252.77,23.79,252Z"/><path class="cls-6" d="M23.79,319.28l1.27,0c0,9,.09,18,.09,27A2.65,2.65,0,0,0,26.44,349a3.17,3.17,0,0,1,.49,4.82A3.4,3.4,0,0,1,22,354a3.22,3.22,0,0,1,.32-5,2.92,2.92,0,0,0,1.34-2.91C23.69,337.15,23.75,328.21,23.79,319.28Z"/><path class="cls-7" d="M372.58,170.4c-1.64,0-2.82,0-4,0a3.27,3.27,0,0,0-3.33,1.4,2.88,2.88,0,0,1-4.44.13,3.3,3.3,0,0,1,0-4.54,3,3,0,0,1,4.62.27,2.68,2.68,0,0,0,2.71,1.27c2.64,0,5.27,0,7.91,0a4,4,0,0,0,3.06-.78,1.53,1.53,0,0,1,2.16.4,1.71,1.71,0,0,1,.13,2.06c-.4.67-1.23,1.23-1.84.79C377.19,169.67,374.57,170.76,372.58,170.4Z"/><path class="cls-8" d="M257.08,318.35a3.37,3.37,0,0,1,2.08-2.85c1.27-.46,2.74-.41,3.37.75.9,1.64,2.21,1.39,3.56,1.4,2.2,0,4.39,0,6.59,0,1.28,0,2.58.22,3.72-.8.68-.59,1.55-.25,2.14.44a1.59,1.59,0,0,1,.07,2.2c-.56.71-1.46,1.13-2.11.57-1.3-1.11-2.74-.79-4.16-.82-1.83,0-3.66,0-5.48,0s-3.38-.35-4.57,1.61c-.66,1.08-2.25.92-3.45.38A3.28,3.28,0,0,1,257.08,318.35Z"/><path class="cls-9" d="M260.3,312.67a3.23,3.23,0,0,1-3-2.46,2.87,2.87,0,0,1,1.55-3.5c1.31-.68,2.92-.69,3.76.65s2,1.4,3.31,1.38c2.27,0,4.54,0,6.8,0,1.28,0,2.57.25,3.72-.79a1.47,1.47,0,0,1,2.13.44,1.55,1.55,0,0,1,.12,2c-.52.77-1.4,1.21-2.06.67-1.7-1.38-3.61-.81-5.45-.91-1.31-.07-2.63,0-4,0-1.84,0-3.79-.43-4.94,1.74C262,312.44,261.06,312.65,260.3,312.67Z"/><path class="cls-10" d="M359.94,151.88a2.91,2.91,0,0,1,2-3.11c1.28-.45,2.68-.34,3.36.84.85,1.46,2,1.39,3.34,1.38,2.49,0,5-.05,7.48,0a4.19,4.19,0,0,0,3-.87c.68-.57,1.43-.18,2,.35a1.69,1.69,0,0,1,.21,2.22,1.39,1.39,0,0,1-1.89.67c-2.28-1.6-4.81-.66-7.22-.88-1.3-.12-2.63,0-3.95,0s-2.16,0-2.92,1.3-2.21,1.37-3.56.83A2.71,2.71,0,0,1,359.94,151.88Z"/><path class="cls-11" d="M257.11,327.44a3.34,3.34,0,0,1,2.21-3,2.71,2.71,0,0,1,3.46,1.1,2.5,2.5,0,0,0,2.52,1.19c2.78-.05,5.57,0,8.35,0a3.12,3.12,0,0,0,2.44-.64,1.62,1.62,0,0,1,2.5.31,1.5,1.5,0,0,1,0,2,1.63,1.63,0,0,1-2.5.39,3.44,3.44,0,0,0-2.64-.68H266c-1.38,0-2.62-.12-3.49,1.47-.65,1.19-2.1,1.22-3.37.77A3.32,3.32,0,0,1,257.11,327.44Z"/><path class="cls-12" d="M360,160.92a2.91,2.91,0,0,1,1.85-3.12,2.67,2.67,0,0,1,3.52.83c.82,1.37,1.88,1.33,3.13,1.32,2.49,0,5,0,7.46,0,1.06,0,2.09.13,3.06-.72a1.54,1.54,0,0,1,2.31.41,1.7,1.7,0,0,1-.1,2.23,1.49,1.49,0,0,1-2.15.33c-1-1-2.12-.79-3.26-.79-2.19,0-4.39,0-6.58,0-1.59,0-3.05-.15-4.11,1.58-.69,1.13-2.15,1.12-3.39.56A2.68,2.68,0,0,1,360,160.92Z"/><path class="cls-13" d="M124.88,444.2h1.24c0,3.28.13,6.56.13,9.84a2.65,2.65,0,0,0,1.2,2.52,3.22,3.22,0,0,1,.56,4.95,3.39,3.39,0,0,1-5,0,3.25,3.25,0,0,1,.55-5,2.67,2.67,0,0,0,1.21-2.52C124.72,450.76,124.82,447.48,124.88,444.2Z"/><path class="cls-14" d="M25.14,85.69c-.08.61.26,1.48-.83,1.43s-.74-.91-.76-1.51-.23-1.46.84-1.41S25,85.13,25.14,85.69Z"/><path class="cls-15" d="M382.41,119.06c.65.09,1.57-.29,1.51,1-.06,1.06-.84.8-1.44.8s-1.62.27-1.66-.84S381.74,119.13,382.41,119.06Z"/><path class="cls-16" d="M23.53,73.85c.06-.72-.25-1.54.83-1.52s.76.87.75,1.44.36,1.48-.67,1.54C23.24,75.39,23.67,74.36,23.53,73.85Z"/><path class="cls-17" d="M394.27,120.73c-.53-.11-1.55.35-1.56-.82,0-1,.9-.77,1.5-.74s1.43-.4,1.52.68S395,120.73,394.27,120.73Z"/><path class="cls-18" d="M412.08,120.77c-.66-.12-1.51.28-1.57-.78s.77-.88,1.38-.84,1.65-.34,1.62.84S412.56,120.59,412.08,120.77Z"/><path class="cls-19" d="M423.71,120.75c-.65,0-1.5.16-1.41-.87s1.09-.66,1.72-.73,1.27-.16,1.27.73C425.3,121.12,424.31,120.6,423.71,120.75Z"/><path class="cls-20" d="M435.61,120.75c-.61-.07-1.49.24-1.5-.76,0-1.18,1-.78,1.62-.83s1.41-.24,1.34.84S436.16,120.63,435.61,120.75Z"/><path class="cls-21" d="M124.43,72.3c-.15.67.32,1.54-.78,1.57s-.76-.85-.75-1.42-.33-1.66.83-1.61S124.2,71.87,124.43,72.3Z"/><path class="cls-22" d="M25.24,67.9c-.17.66.31,1.55-.81,1.57s-1-.81-1-1.54-.24-1.63.93-1.6S25,67.4,25.24,67.9Z"/><path class="cls-23" d="M25.14,62.07c-.1.59.28,1.48-.76,1.48s-.81-1-.82-1.62-.33-1.43.75-1.43C25.57,60.49,25,61.5,25.14,62.07Z"/><path class="cls-24" d="M124.4,36.91c-.1.58.25,1.48-.77,1.46s-.68-1-.74-1.66-.22-1.41.84-1.31S124.25,36.38,124.4,36.91Z"/><path class="cls-25" d="M124.42,7.27c-.1.68.27,1.55-.83,1.5s-.67-.93-.69-1.49-.27-1.46.78-1.41S124.24,6.83,124.42,7.27Z"/><path class="cls-26" d="M124.4,19.13c-.16.54.37,1.45-.73,1.49s-.78-.85-.78-1.43-.32-1.49.7-1.53S124.29,18.54,124.4,19.13Z"/><path class="cls-27" d="M122.86,78.31c.16-.52-.38-1.39.65-1.52s.92.69.87,1.3.37,1.62-.74,1.68S123,78.91,122.86,78.31Z"/><path class="cls-28" d="M122.89,60.44c.07-.56-.21-1.33.68-1.32,1.21,0,.73,1,.78,1.6s.27,1.27-.66,1.27C122.44,62,123.07,61,122.89,60.44Z"/><path class="cls-29" d="M122.85,48.78c.11-.68-.27-1.56.82-1.51s.69.91.71,1.48.28,1.44-.79,1.41S123.08,49.19,122.85,48.78Z"/><path class="cls-30" d="M124.41,25c-.16.59.37,1.66-.86,1.58-1-.06-.66-1-.65-1.56s-.39-1.44.7-1.47S124.27,24.42,124.41,25Z"/><path class="cls-31" d="M134.33,447a4.29,4.29,0,0,1,1.86,1.91c.14.32-.33.78-.66.68a3.21,3.21,0,0,1-1.91-1.87C133.47,447.36,133.89,447.1,134.33,447Z"/><path class="cls-32" d="M124.41,1.41c-.16.56.31,1.44-.7,1.54s-.85-.78-.81-1.36-.39-1.65.77-1.66S124.27.85,124.41,1.41Z"/><path class="cls-33" d="M447.44,120.75c-.61-.08-1.49.22-1.49-.78,0-1.16,1-.77,1.63-.81s1.42-.18,1.34.86S448,120.62,447.44,120.75Z"/><path class="cls-34" d="M441.51,120.75c-.65-.06-1.49.2-1.43-.87s.93-.71,1.51-.71,1.48-.31,1.51.72C443.12,121.11,442.09,120.6,441.51,120.75Z"/><path class="cls-35" d="M429.76,119.14c.6.1,1.5-.24,1.48.79s-1,.75-1.66.79-1.45.16-1.34-.88S429.22,119.28,429.76,119.14Z"/><path class="cls-36" d="M418,120.85c-.69-.14-1.66.28-1.69-.88s.93-.88,1.59-.89,1.6-.24,1.54.94C419.4,121,418.56,120.74,418,120.85Z"/><path class="cls-37" d="M406.06,120.74c-.58-.11-1.48.28-1.52-.73,0-1.19,1-.82,1.6-.84s1.44-.27,1.4.8S406.63,120.63,406.06,120.74Z"/><path class="cls-38" d="M400.16,120.75c-.57-.13-1.45.29-1.43-.8s.84-.8,1.43-.8,1.64-.27,1.54.91C401.62,121.05,400.72,120.63,400.16,120.75Z"/><path class="cls-39" d="M388.41,120.78c-.64-.15-1.51.24-1.55-.81s.81-.83,1.4-.81,1.64-.36,1.59.84C389.82,121,388.89,120.59,388.41,120.78Z"/><path class="cls-40" d="M376.58,120.76c-.6-.16-1.64.32-1.59-.89.05-1,.94-.71,1.52-.71s1.46-.3,1.5.74S377.2,120.69,376.58,120.76Z"/><path class="cls-41" d="M25.17,91.38c-.18.68.35,1.69-.85,1.71-1,0-.78-.87-.75-1.44s-.43-1.6.79-1.63S25,90.92,25.17,91.38Z"/><path class="cls-42" d="M124.41,84.18c-.14.56.32,1.46-.76,1.48s-.77-.86-.75-1.43-.39-1.65.82-1.58C124.74,82.71,124.25,83.63,124.41,84.18Z"/><path class="cls-43" d="M25.14,79.86c-.1.61.28,1.49-.81,1.42s-.72-1-.76-1.67-.2-1.45.83-1.39C25.62,78.3,24.92,79.32,25.14,79.86Z"/><path class="cls-44" d="M124.39,66.44c-.15.55.33,1.48-.7,1.51-1.19,0-.75-1-.79-1.62s-.29-1.46.78-1.4S124.24,65.89,124.39,66.44Z"/><path class="cls-45" d="M124.42,54.46c-.24.65.39,1.74-.88,1.65-1-.06-.63-1-.64-1.55s-.36-1.46.71-1.49S124.19,54,124.42,54.46Z"/><path class="cls-46" d="M122.86,42.83c.16-.55-.35-1.49.68-1.56,1.25-.08.79,1,.82,1.6s.36,1.47-.75,1.45S123,43.39,122.86,42.83Z"/><path class="cls-47" d="M124.41,13.2c-.17.6.36,1.67-.88,1.57-1-.08-.62-1-.63-1.57s-.35-1.46.73-1.47S124.31,12.61,124.41,13.2Z"/><path class="cls-48" d="M141.26,492.72c.21-.53-.41-1.49.69-1.52.91,0,.69.8.66,1.32s.38,1.52-.57,1.63C140.92,494.28,141.43,493.26,141.26,492.72Z"/><path class="cls-49" d="M176.48,468c.15-.58-.33-1.56.65-1.57s.67.95.66,1.53.38,1.5-.74,1.42C176.12,469.3,176.65,468.46,176.48,468Z"/><path class="cls-50" d="M141.27,463.13c.16-.55-.35-1.52.71-1.49s.61,1,.62,1.55.32,1.31-.58,1.36C140.87,464.62,141.45,463.65,141.27,463.13Z"/><path class="cls-51" d="M177.83,402.83c-.16.54.36,1.48-.73,1.47-.93,0-.6-.86-.58-1.35s-.46-1.5.66-1.48C178.07,401.48,177.73,402.3,177.83,402.83Z"/><path class="cls-52" d="M177.84,414.68c-.13.61.27,1.45-.64,1.48-1.12,0-.66-.93-.68-1.48s-.35-1.34.56-1.38C178.19,413.25,177.61,414.25,177.84,414.68Z"/><path class="cls-53" d="M177.83,432.44c-.14.57.29,1.54-.76,1.45s-.51-1-.54-1.58-.37-1.31.58-1.32C178.22,431,177.65,431.92,177.83,432.44Z"/><path class="cls-54" d="M177.82,456.21c-.11.51.29,1.32-.61,1.35-1.08,0-.69-.89-.69-1.43s-.38-1.5.67-1.44S177.67,455.67,177.82,456.21Z"/><path class="cls-55" d="M137.8,452c0-.51.33-.9.61-.81a3.33,3.33,0,0,1,2,1.87c.17.36-.43.79-.59.73A4.39,4.39,0,0,1,137.8,452Z"/><path class="cls-56" d="M130.32,442.9c.59.58,1.57,1,1.65,2,0,.24-.4.73-.79.47a3.77,3.77,0,0,1-1.7-1.91C129.39,443.21,129.77,442.84,130.32,442.9Z"/><path class="cls-57" d="M176.48,444.23c.16-.48-.35-1.33.61-1.36s.67.91.7,1.46.27,1.35-.6,1.37C176.08,445.73,176.66,444.76,176.48,444.23Z"/><path class="cls-58" d="M177.82,426.67c-.09.53.27,1.35-.66,1.34-1.12,0-.61-1-.63-1.5s-.37-1.53.69-1.44S177.67,426.12,177.82,426.67Z"/><path class="cls-59" d="M177.83,420.65c-.12.58.28,1.56-.79,1.43s-.49-1.06-.52-1.63-.34-1.34.6-1.31S177.68,420.1,177.83,420.65Z"/><path class="cls-60" d="M176.48,438.2c.13-.52-.25-1.38.61-1.36,1.14,0,.65,1.05.7,1.66s.27,1.34-.59,1.32C176,439.8,176.69,438.76,176.48,438.2Z"/><path class="cls-61" d="M177.83,408.89c-.14.55.31,1.53-.78,1.4s-.52-1-.53-1.58-.41-1.52.71-1.39S177.65,408.35,177.83,408.89Z"/><path class="cls-62" d="M176.43,450.23c.22-.65-.32-1.64.82-1.54.87.07.56.91.55,1.41s.35,1.54-.66,1.55S176.79,450.61,176.43,450.23Z"/><path class="cls-63" d="M141.27,457.28c.18-.54-.36-1.48.66-1.54.86-.05.73.77.67,1.3s.44,1.68-.77,1.64C141,458.65,141.43,457.78,141.27,457.28Z"/><path class="cls-64" d="M176.48,461.94c.15-.5-.33-1.33.54-1.41,1.07-.1.78.83.77,1.4s.33,1.54-.64,1.54S176.64,462.49,176.48,461.94Z"/><path class="cls-65" d="M142.64,469.12c-.11.59.23,1.56-.82,1.41s-.47-1.06-.5-1.63-.32-1.35.62-1.31S142.5,468.56,142.64,469.12Z"/><path class="cls-66" d="M142.65,474.77c-.17.6.33,1.49-.68,1.58s-.7-.75-.65-1.23-.49-1.63.69-1.64C142.86,473.46,142.5,474.33,142.65,474.77Z"/><path class="cls-67" d="M141.24,481c.24-.59-.39-1.55.7-1.59.89,0,.71.78.66,1.31s.43,1.69-.78,1.63C141,482.33,141.49,481.42,141.24,481Z"/><path class="cls-68" d="M142.65,486.82c-.1.66.16,1.47-.74,1.39s-.57-1-.6-1.54-.29-1.35.56-1.36C143.08,485.3,142.36,486.41,142.65,486.82Z"/><path class="cls-69" d="M142.64,498.64c-.12.58.28,1.52-.8,1.43-.87-.08-.54-.91-.52-1.41s-.41-1.52.62-1.53S142.49,498.09,142.64,498.64Z"/><path class="cls-70" d="M124.23,31c-.21.57.34,1.45-.68,1.4s-.63-.83-.64-1.36-.26-1.32.68-1.29S123.88,30.73,124.23,31Z"/><path class="cls-71" d="M148.06,275.71c.36-.11.85-.66,1,.09s-.81.34-1,.77Z"/><path class="cls-72" d="M130.85,369c1.05.45,1.06.89,0,1.34Z"/><path class="cls-73" d="M130.84,366.34c.27.05.58.11.58.45s-.3.4-.57.45Z"/><path class="cls-74" d="M130.84,363.7c.28.05.59.11.58.46s-.32.39-.59.44Z"/><path class="cls-75" d="M204.66,221.08l.42-.38C205.15,221.06,205,221.16,204.66,221.08Z"/><path class="cls-76" d="M239.44,106.8l1.75-.07a6.33,6.33,0,0,0,.71.48c.51.24,1.4.3,1.26,1-.19,1-1.11.19-1.67.38-.56-.67-1.39-.23-2-.51Z"/><path class="cls-77" d="M237.25,106.79h.88v1.26h-.89C237.25,107.63,237.25,107.21,237.25,106.79Z"/><path class="cls-78" d="M130.92,154.29c12.61,0,25.21.07,37.82,0,2.54,0,4.56.44,6.06,2.54,1,1.36,2.83,2,2.83,4.16q-.09,40,0,80c0,1.51-1,2.13-1.67,3.11-2.14,2.94-4.9,3.63-8.5,3.6-25.21-.16-50.42-.1-75.64,0A5.56,5.56,0,0,1,88,246c-3-2.47-3.63-5.48-3.61-9.24q.22-36.83,0-73.65A8.39,8.39,0,0,1,86.91,157a7.67,7.67,0,0,1,6.41-2.75C105.85,154.38,118.39,154.29,130.92,154.29Zm0,2.12H92.43c-2.71,0-5.81,3.08-5.81,5.83q0,38.81,0,77.61c0,2.45,3.34,5.71,5.8,5.71h77.18c2.79,0,6-3.19,6-6V162.4c0-2.74-3.24-6-6-6Z"/><path class="cls-79" d="M326.16,120q0,13.52,0,27.05c0,2.73-3.12,5.83-5.85,5.83l-54.12,0c-2.37,0-5.64-3.22-5.64-5.6q0-27.39,0-54.77c0-2.27,3.25-5.47,5.53-5.47h54.55c2.32,0,5.54,3.32,5.54,5.7Zm-2.57,0h0V94c0-2.93-1.49-4.41-4.39-4.41H267.52c-3,0-4.4,1.39-4.4,4.35v51.9c0,2.84,1.58,4.46,4.36,4.46h51.69c2.88,0,4.42-1.53,4.42-4.41Z"/><path class="cls-80" d="M238.13,108.05v-1.26h1.31v1.26Z"/></svg>