<svg id="Calque_1" data-name="Calque 1" xmlns="http://www.w3.org/2000/svg" viewBox="0 0 562 209"><defs><style>.cls-1{fill:#1b1464;}</style></defs><title>logo</title><path class="cls-1" d="M152.69,27.5V66H48.08V27.5ZM86.58,143h66.11v38.5H48.08v-99H152.69V121H86.58Z"/><path class="cls-1" d="M265.11,102.74q8.46,12.65,8.47,29.26,0,20.46-12.87,35T229.58,181.5h-60.5V143h55a11,11,0,0,0,0-22H169l.11-38.5h57.74a8.25,8.25,0,1,0,0-16.5H169.08V27.5h63.25q17,0,29.15,13.69t12.1,33.06A49.1,49.1,0,0,1,265.11,102.74Z"/><path class="cls-1" d="M394.8,137.5v33.88a74.34,74.34,0,0,1-38.5,10.12q-31.91,0-54.45-22.55T279.3,104.5q0-31.9,22.55-54.45T356.3,27.5h38.5V66H356.3a38.5,38.5,0,0,0-38.5,38.5,38.65,38.65,0,0,0,58.52,33Zm0-16.5h-44V82.5h44Z"/><path class="cls-1" d="M419,29h1.35v6.17h-8.57v9.43h5.09v6.14h-5.09v9.45h8.57v6.14H405.65V29H419Z"/><path class="cls-1" d="M429.28,29h1.33V60.23h8.29v6.14H424.47V29h4.81Z"/><path class="cls-1" d="M455.75,29h1.36v6.17h-8.57v9.43h5.09v6.14h-5.09v9.45h8.57v6.14H442.39V29h13.36Z"/><path class="cls-1" d="M475,31.49a7.9,7.9,0,0,1,2.43,5.84v2.22h-6.16V37.33a2,2,0,0,0-.63-1.5,2,2,0,0,0-1.48-.62A2.12,2.12,0,0,0,467,37.33V58.1a2,2,0,0,0,.62,1.51,2.11,2.11,0,0,0,1.5.62,2,2,0,0,0,1.48-.62,2.05,2.05,0,0,0,.63-1.51V55.89h6.16V58.1a8.27,8.27,0,0,1-16.54,0V37.33A8.25,8.25,0,0,1,475,31.49Z"/><path class="cls-1" d="M481.48,35.21h-1.36V29h16.54v6.17h-5.17V66.37h-6.17V35.21Z"/><path class="cls-1" d="M501.48,66.37h-1.33V29h7.18a9.18,9.18,0,0,1,9.15,9.15v5.59a9,9,0,0,1-2.54,6,9,9,0,0,1,2.54,6.06v7a6.87,6.87,0,0,0,.55,3.44h-6.14a3.72,3.72,0,0,1-.47-1.59c-.06-.63-.09-1.24-.11-1.85v-7a2.8,2.8,0,0,0-.88-2.1,2.87,2.87,0,0,0-2.1-.89h-1V66.37h-4.81Zm4.81-19.61h1.25a2.87,2.87,0,0,0,2.11-.88,2.9,2.9,0,0,0,.88-2.1V38.19a2.84,2.84,0,0,0-.88-2.1,2.87,2.87,0,0,0-2.11-.88h-1.25Z"/><path class="cls-1" d="M534.72,31.49a8,8,0,0,1,2.43,5.84V58.1a8.3,8.3,0,0,1-8.27,8.27,8.28,8.28,0,0,1-8.27-8.27V37.33a8.25,8.25,0,0,1,14.11-5.84Zm-7.35,4.34a2.06,2.06,0,0,0-.62,1.5V58.1a2.08,2.08,0,0,0,.62,1.51,2.12,2.12,0,0,0,1.51.62,2.15,2.15,0,0,0,1.48-.62A2.08,2.08,0,0,0,531,58.1V37.33a2.06,2.06,0,0,0-.62-1.5,2,2,0,0,0-1.48-.62A2,2,0,0,0,527.37,35.83Z"/><path class="cls-1" d="M422.17,106.56V110a8.7,8.7,0,0,1-2.69,6.44,8.79,8.79,0,0,1-6.44,2.69h-7.39V81.84h7A9.17,9.17,0,0,1,421.74,91v3.46a8.9,8.9,0,0,1-2.54,5.84C420.45,101.73,422.17,104.1,422.17,106.56ZM412.82,88h-1v9.43h1a3,3,0,0,0,3-3V91A3,3,0,0,0,412.82,88Zm.22,15.57h-1.25V113H413a3,3,0,0,0,3-3v-3.48A3,3,0,0,0,413,103.57Z"/><path class="cls-1" d="M442.6,110.9a8.3,8.3,0,0,1-8.27,8.27,7.86,7.86,0,0,1-5.84-2.43,8,8,0,0,1-2.43-5.84V81.84h6.14V110.9a2,2,0,0,0,.63,1.5,2.07,2.07,0,0,0,1.5.62,2,2,0,0,0,1.48-.62,2,2,0,0,0,.63-1.5V81.84h6.16V110.9Z"/><path class="cls-1" d="M454.77,119.17a8.06,8.06,0,0,1-8-8.27v-4h5.92v4a2.08,2.08,0,0,0,2,2.12,1.92,1.92,0,0,0,1.76-2.12v-2c0-2-1.71-3.41-2.56-4.46-1.67-2.09-4.43-4.44-5.45-5.89a12.26,12.26,0,0,1-1.94-5.65l-.08-2.81a8.24,8.24,0,0,1,8.18-8.29c4.49,0,7.78,3.68,7.78,8.29v3.93h-5.93V90.13A1.94,1.94,0,0,0,454.77,88a2.08,2.08,0,0,0-2,2.13V91.7a7.39,7.39,0,0,0,1,3,23.4,23.4,0,0,0,3.13,3.2c2.43,2.51,3.42,3.34,4.19,4.72a12.39,12.39,0,0,1,1.57,5.39l0,2.86A8,8,0,0,1,454.77,119.17Z"/><path class="cls-1" d="M471.59,81.84h1.33v37.33h-6.14V81.84h4.81Z"/><path class="cls-1" d="M477.68,81.84h8.24c3.31,15,3.48,14.39,6,25.45,0-5.76-.22-19.69-.22-25.45h6.17v37.33h-8.46c-3.51-14.69-3.79-15.51-5.61-24.59v24.59h-6.14Z"/><path class="cls-1" d="M515.81,81.84h1.35V88h-8.57v9.43h5.09v6.14h-5.09V113h8.57v6.15H502.45V81.84h13.36Z"/><path class="cls-1" d="M528.88,119.17a8.06,8.06,0,0,1-8-8.27v-4h5.93v4a2.07,2.07,0,0,0,2,2.12,1.92,1.92,0,0,0,1.76-2.12v-2c0-2-1.71-3.41-2.56-4.46-1.67-2.09-4.42-4.44-5.45-5.89a12.26,12.26,0,0,1-1.94-5.65l-.08-2.81a8.24,8.24,0,0,1,8.18-8.29c4.49,0,7.78,3.68,7.78,8.29v3.93h-5.93V90.13A1.94,1.94,0,0,0,528.88,88a2.07,2.07,0,0,0-2,2.13V91.7a7.22,7.22,0,0,0,1,3,23.4,23.4,0,0,0,3.13,3.2c2.43,2.51,3.42,3.34,4.19,4.72a12.39,12.39,0,0,1,1.57,5.39l0,2.86A8,8,0,0,1,528.88,119.17Z"/><path class="cls-1" d="M548.3,119.17a8.07,8.07,0,0,1-8-8.27v-4h5.93v4a2.07,2.07,0,0,0,2,2.12,1.92,1.92,0,0,0,1.76-2.12v-2c0-2-1.7-3.41-2.55-4.46-1.68-2.09-4.43-4.44-5.46-5.89a12.34,12.34,0,0,1-1.93-5.65L540,90.13a8.25,8.25,0,0,1,8.19-8.29c4.49,0,7.77,3.68,7.77,8.29v3.93h-5.93V90.13A1.93,1.93,0,0,0,548.3,88a2.08,2.08,0,0,0-2,2.13V91.7a7.36,7.36,0,0,0,1,3,24,24,0,0,0,3.14,3.2c2.43,2.51,3.42,3.34,4.19,4.72a12.52,12.52,0,0,1,1.57,5.39l0,2.86A8,8,0,0,1,548.3,119.17Z"/><path class="cls-1" d="M413.57,134.64a8.3,8.3,0,0,1,8.27,8.29v2.34h-5.95v-2.34a2.33,2.33,0,0,0-2.32-2.13,2.14,2.14,0,0,0-2.12,2.13V163.7a2.14,2.14,0,0,0,2.12,2.12c1.12,0,2.54-1,2.54-2.12v-6.23H413v-5.72h8.8V163.7a8.34,8.34,0,0,1-8.27,8.26,7.86,7.86,0,0,1-5.84-2.42,8,8,0,0,1-2.43-5.84V142.93A8.34,8.34,0,0,1,413.57,134.64Z"/><path class="cls-1" d="M442.6,163.7a8.28,8.28,0,0,1-8.27,8.26,7.85,7.85,0,0,1-5.84-2.42,8,8,0,0,1-2.43-5.84V134.64h6.14V163.7a2,2,0,0,0,.63,1.5,2.11,2.11,0,0,0,1.5.62,2.13,2.13,0,0,0,2.11-2.12V134.64h6.16V163.7Z"/><path class="cls-1" d="M452.17,134.64h1.33V172h-6.14V134.64h4.81Z"/><path class="cls-1" d="M458.25,134.64h8.25c3.31,15,3.48,14.39,6,25.45,0-5.77-.21-19.69-.21-25.45h6.16V172H470c-3.5-14.69-3.78-15.5-5.61-24.59V172h-6.14Z"/><path class="cls-1" d="M496.39,134.64h1.35v6.16h-8.57v9.43h5.09v6.14h-5.09v9.45h8.57V172H483V134.64h13.36Z"/><path class="cls-1" d="M515.21,134.64h1.35v6.16H508v9.43h5.09v6.14H508v9.45h8.57V172H501.85V134.64h13.36Z"/><rect class="cls-1" x="5.79" y="82.84" width="100.44" height="33.48"/></svg>